<mxfile host="app.diagrams.net" modified="2022-05-12T06:25:01.595Z" agent="5.0 (Windows NT 10.0; Win64; x64) AppleWebKit/537.36 (KHTML, like Gecko) Chrome/101.0.4951.54 Safari/537.36" etag="naexuphrdss3O8sS53-9" version="18.0.2" type="github">
  <diagram name="Page-1" id="2cc2dc42-3aac-f2a9-1cec-7a8b7cbee084">
    <mxGraphModel dx="1673" dy="896" grid="1" gridSize="10" guides="1" tooltips="1" connect="1" arrows="1" fold="1" page="1" pageScale="1" pageWidth="1100" pageHeight="850" background="none" math="0" shadow="0">
      <root>
        <mxCell id="0" />
        <mxCell id="1" parent="0" />
        <mxCell id="7026571954dc6520-1" value="" style="strokeWidth=1;shadow=0;dashed=0;align=left;html=1;shape=mxgraph.mockup.containers.browserWindow;rSize=0;strokeColor=#666666;mainText=,;recursiveResize=0;rounded=0;labelBackgroundColor=none;fontFamily=Verdana;fontSize=12;fillColor=#FFFFFF;" parent="1" vertex="1">
          <mxGeometry x="25" y="9" width="1050" height="820" as="geometry" />
        </mxCell>
        <mxCell id="7026571954dc6520-2" value="Page 1" style="strokeWidth=1;shadow=0;dashed=0;align=center;html=1;shape=mxgraph.mockup.containers.anchor;fontSize=17;fontColor=#666666;align=left;" parent="7026571954dc6520-1" vertex="1">
          <mxGeometry x="60" y="12" width="110" height="26" as="geometry" />
        </mxCell>
        <mxCell id="7026571954dc6520-3" value="appraisal.magazzin.com/admin/manage_staff" style="strokeWidth=1;shadow=0;dashed=0;align=center;html=1;shape=mxgraph.mockup.containers.anchor;rSize=0;fontSize=17;fontColor=#666666;align=left;" parent="7026571954dc6520-1" vertex="1">
          <mxGeometry x="130" y="60" width="310" height="26" as="geometry" />
        </mxCell>
        <mxCell id="7026571954dc6520-15" value="" style="verticalLabelPosition=bottom;shadow=0;dashed=0;align=center;html=1;verticalAlign=top;strokeWidth=1;shape=mxgraph.mockup.markup.line;strokeColor=#999999;rounded=0;labelBackgroundColor=none;fillColor=#ffffff;fontFamily=Verdana;fontSize=12;fontColor=#000000;rotation=90;" parent="7026571954dc6520-1" vertex="1">
          <mxGeometry x="-64" y="454" width="710" height="20" as="geometry" />
        </mxCell>
        <mxCell id="7026571954dc6520-16" value="Title 1" style="text;html=1;points=[];align=left;verticalAlign=top;spacingTop=-4;fontSize=15;fontFamily=Verdana" parent="7026571954dc6520-1" vertex="1">
          <mxGeometry x="20" y="330" width="170" height="30" as="geometry" />
        </mxCell>
        <mxCell id="SZr3nd6nF8tyNM994ILB-43" value="" style="verticalLabelPosition=bottom;shadow=0;dashed=0;align=center;html=1;verticalAlign=top;strokeWidth=1;shape=mxgraph.mockup.graphics.simpleIcon;strokeColor=#999999;fontFamily=Helvetica;fontSize=30;fillColor=#FFFFFF;" parent="7026571954dc6520-1" vertex="1">
          <mxGeometry x="50" y="150" width="190" height="88" as="geometry" />
        </mxCell>
        <mxCell id="7026571954dc6520-4" value="&lt;font face=&quot;Helvetica&quot;&gt;LOGO&lt;/font&gt;" style="text;html=1;points=[];align=left;verticalAlign=top;spacingTop=-4;fontSize=30;fontFamily=Verdana" parent="7026571954dc6520-1" vertex="1">
          <mxGeometry x="99.5" y="173" width="95" height="50" as="geometry" />
        </mxCell>
        <mxCell id="13Tbyo3TAh6JkKic5oAa-1" value="Department" style="text;strokeColor=none;fillColor=none;html=1;fontSize=26;fontStyle=0;verticalAlign=middle;align=center;" parent="7026571954dc6520-1" vertex="1">
          <mxGeometry x="366" y="168" width="160" height="49" as="geometry" />
        </mxCell>
        <mxCell id="8aW-hddMtNVGwqMHstpQ-5" value="" style="shape=table;html=1;whiteSpace=wrap;startSize=0;container=1;collapsible=0;childLayout=tableLayout;strokeColor=none;" parent="7026571954dc6520-1" vertex="1">
          <mxGeometry x="350" y="280" width="630" height="200" as="geometry" />
        </mxCell>
        <mxCell id="8aW-hddMtNVGwqMHstpQ-6" value="" style="shape=tableRow;horizontal=0;startSize=0;swimlaneHead=0;swimlaneBody=0;top=0;left=0;bottom=0;right=0;collapsible=0;dropTarget=0;fillColor=none;points=[[0,0.5],[1,0.5]];portConstraint=eastwest;strokeColor=default;" parent="8aW-hddMtNVGwqMHstpQ-5" vertex="1">
          <mxGeometry width="630" height="50" as="geometry" />
        </mxCell>
        <mxCell id="8aW-hddMtNVGwqMHstpQ-7" value="Name" style="shape=partialRectangle;html=1;whiteSpace=wrap;connectable=0;fillColor=none;top=0;left=0;bottom=0;right=0;overflow=hidden;" parent="8aW-hddMtNVGwqMHstpQ-6" vertex="1">
          <mxGeometry width="254" height="50" as="geometry">
            <mxRectangle width="254" height="50" as="alternateBounds" />
          </mxGeometry>
        </mxCell>
        <mxCell id="8aW-hddMtNVGwqMHstpQ-8" value="code" style="shape=partialRectangle;html=1;whiteSpace=wrap;connectable=0;fillColor=none;top=0;left=0;bottom=0;right=0;overflow=hidden;" parent="8aW-hddMtNVGwqMHstpQ-6" vertex="1">
          <mxGeometry x="254" width="70" height="50" as="geometry">
            <mxRectangle width="70" height="50" as="alternateBounds" />
          </mxGeometry>
        </mxCell>
        <mxCell id="8aW-hddMtNVGwqMHstpQ-9" value="department head" style="shape=partialRectangle;html=1;whiteSpace=wrap;connectable=0;fillColor=none;top=0;left=0;bottom=0;right=0;overflow=hidden;" parent="8aW-hddMtNVGwqMHstpQ-6" vertex="1">
          <mxGeometry x="324" width="105" height="50" as="geometry">
            <mxRectangle width="105" height="50" as="alternateBounds" />
          </mxGeometry>
        </mxCell>
        <mxCell id="8aW-hddMtNVGwqMHstpQ-28" value="division head" style="shape=partialRectangle;html=1;whiteSpace=wrap;connectable=0;fillColor=none;top=0;left=0;bottom=0;right=0;overflow=hidden;" parent="8aW-hddMtNVGwqMHstpQ-6" vertex="1">
          <mxGeometry x="429" width="151" height="50" as="geometry">
            <mxRectangle width="151" height="50" as="alternateBounds" />
          </mxGeometry>
        </mxCell>
        <mxCell id="8aW-hddMtNVGwqMHstpQ-340" style="shape=partialRectangle;html=1;whiteSpace=wrap;connectable=0;fillColor=none;top=0;left=0;bottom=0;right=0;overflow=hidden;" parent="8aW-hddMtNVGwqMHstpQ-6" vertex="1">
          <mxGeometry x="580" width="50" height="50" as="geometry">
            <mxRectangle width="50" height="50" as="alternateBounds" />
          </mxGeometry>
        </mxCell>
        <mxCell id="8aW-hddMtNVGwqMHstpQ-10" value="" style="shape=tableRow;horizontal=0;startSize=0;swimlaneHead=0;swimlaneBody=0;top=0;left=0;bottom=0;right=0;collapsible=0;dropTarget=0;fillColor=none;points=[[0,0.5],[1,0.5]];portConstraint=eastwest;" parent="8aW-hddMtNVGwqMHstpQ-5" vertex="1">
          <mxGeometry y="50" width="630" height="50" as="geometry" />
        </mxCell>
        <mxCell id="8aW-hddMtNVGwqMHstpQ-11" value="&lt;div style=&quot;&quot;&gt;dept name&lt;br&gt;&lt;/div&gt;" style="shape=partialRectangle;html=1;whiteSpace=wrap;connectable=0;fillColor=none;top=0;left=0;bottom=0;right=0;overflow=hidden;align=center;" parent="8aW-hddMtNVGwqMHstpQ-10" vertex="1">
          <mxGeometry width="254" height="50" as="geometry">
            <mxRectangle width="254" height="50" as="alternateBounds" />
          </mxGeometry>
        </mxCell>
        <mxCell id="8aW-hddMtNVGwqMHstpQ-12" value="&lt;span style=&quot;&quot;&gt;dept code&lt;/span&gt;" style="shape=partialRectangle;html=1;whiteSpace=wrap;connectable=0;fillColor=none;top=0;left=0;bottom=0;right=0;overflow=hidden;" parent="8aW-hddMtNVGwqMHstpQ-10" vertex="1">
          <mxGeometry x="254" width="70" height="50" as="geometry">
            <mxRectangle width="70" height="50" as="alternateBounds" />
          </mxGeometry>
        </mxCell>
        <mxCell id="8aW-hddMtNVGwqMHstpQ-13" value="dept head name" style="shape=partialRectangle;html=1;whiteSpace=wrap;connectable=0;fillColor=none;top=0;left=0;bottom=0;right=0;overflow=hidden;" parent="8aW-hddMtNVGwqMHstpQ-10" vertex="1">
          <mxGeometry x="324" width="105" height="50" as="geometry">
            <mxRectangle width="105" height="50" as="alternateBounds" />
          </mxGeometry>
        </mxCell>
        <mxCell id="8aW-hddMtNVGwqMHstpQ-29" value="di head name" style="shape=partialRectangle;html=1;whiteSpace=wrap;connectable=0;fillColor=none;top=0;left=0;bottom=0;right=0;overflow=hidden;" parent="8aW-hddMtNVGwqMHstpQ-10" vertex="1">
          <mxGeometry x="429" width="151" height="50" as="geometry">
            <mxRectangle width="151" height="50" as="alternateBounds" />
          </mxGeometry>
        </mxCell>
        <mxCell id="8aW-hddMtNVGwqMHstpQ-341" style="shape=partialRectangle;html=1;whiteSpace=wrap;connectable=0;fillColor=none;top=0;left=0;bottom=0;right=0;overflow=hidden;" parent="8aW-hddMtNVGwqMHstpQ-10" vertex="1">
          <mxGeometry x="580" width="50" height="50" as="geometry">
            <mxRectangle width="50" height="50" as="alternateBounds" />
          </mxGeometry>
        </mxCell>
        <mxCell id="8aW-hddMtNVGwqMHstpQ-14" value="" style="shape=tableRow;horizontal=0;startSize=0;swimlaneHead=0;swimlaneBody=0;top=0;left=0;bottom=0;right=0;collapsible=0;dropTarget=0;fillColor=none;points=[[0,0.5],[1,0.5]];portConstraint=eastwest;" parent="8aW-hddMtNVGwqMHstpQ-5" vertex="1">
          <mxGeometry y="100" width="630" height="50" as="geometry" />
        </mxCell>
        <mxCell id="8aW-hddMtNVGwqMHstpQ-15" value="" style="shape=partialRectangle;html=1;whiteSpace=wrap;connectable=0;fillColor=none;top=0;left=0;bottom=0;right=0;overflow=hidden;" parent="8aW-hddMtNVGwqMHstpQ-14" vertex="1">
          <mxGeometry width="254" height="50" as="geometry">
            <mxRectangle width="254" height="50" as="alternateBounds" />
          </mxGeometry>
        </mxCell>
        <mxCell id="8aW-hddMtNVGwqMHstpQ-16" value="" style="shape=partialRectangle;html=1;whiteSpace=wrap;connectable=0;fillColor=none;top=0;left=0;bottom=0;right=0;overflow=hidden;" parent="8aW-hddMtNVGwqMHstpQ-14" vertex="1">
          <mxGeometry x="254" width="70" height="50" as="geometry">
            <mxRectangle width="70" height="50" as="alternateBounds" />
          </mxGeometry>
        </mxCell>
        <mxCell id="8aW-hddMtNVGwqMHstpQ-17" value="" style="shape=partialRectangle;html=1;whiteSpace=wrap;connectable=0;fillColor=none;top=0;left=0;bottom=0;right=0;overflow=hidden;pointerEvents=1;" parent="8aW-hddMtNVGwqMHstpQ-14" vertex="1">
          <mxGeometry x="324" width="105" height="50" as="geometry">
            <mxRectangle width="105" height="50" as="alternateBounds" />
          </mxGeometry>
        </mxCell>
        <mxCell id="8aW-hddMtNVGwqMHstpQ-30" style="shape=partialRectangle;html=1;whiteSpace=wrap;connectable=0;fillColor=none;top=0;left=0;bottom=0;right=0;overflow=hidden;pointerEvents=1;" parent="8aW-hddMtNVGwqMHstpQ-14" vertex="1">
          <mxGeometry x="429" width="151" height="50" as="geometry">
            <mxRectangle width="151" height="50" as="alternateBounds" />
          </mxGeometry>
        </mxCell>
        <mxCell id="8aW-hddMtNVGwqMHstpQ-342" style="shape=partialRectangle;html=1;whiteSpace=wrap;connectable=0;fillColor=none;top=0;left=0;bottom=0;right=0;overflow=hidden;pointerEvents=1;" parent="8aW-hddMtNVGwqMHstpQ-14" vertex="1">
          <mxGeometry x="580" width="50" height="50" as="geometry">
            <mxRectangle width="50" height="50" as="alternateBounds" />
          </mxGeometry>
        </mxCell>
        <mxCell id="8aW-hddMtNVGwqMHstpQ-18" value="List" style="swimlane;fontStyle=0;childLayout=stackLayout;horizontal=1;startSize=30;horizontalStack=0;resizeParent=1;resizeParentMax=0;resizeLast=0;collapsible=1;marginBottom=0;" parent="8aW-hddMtNVGwqMHstpQ-14" vertex="1">
          <mxGeometry x="630" width="NaN" height="50" as="geometry">
            <mxRectangle width="NaN" height="50" as="alternateBounds" />
          </mxGeometry>
        </mxCell>
        <mxCell id="8aW-hddMtNVGwqMHstpQ-20" value="Item 2" style="text;strokeColor=none;fillColor=none;align=left;verticalAlign=middle;spacingLeft=4;spacingRight=4;overflow=hidden;points=[[0,0.5],[1,0.5]];portConstraint=eastwest;rotatable=0;" parent="8aW-hddMtNVGwqMHstpQ-18" vertex="1">
          <mxGeometry y="30" width="NaN" height="30" as="geometry" />
        </mxCell>
        <mxCell id="8aW-hddMtNVGwqMHstpQ-21" value="Item 3" style="text;strokeColor=none;fillColor=none;align=left;verticalAlign=middle;spacingLeft=4;spacingRight=4;overflow=hidden;points=[[0,0.5],[1,0.5]];portConstraint=eastwest;rotatable=0;" parent="8aW-hddMtNVGwqMHstpQ-18" vertex="1">
          <mxGeometry y="60" width="NaN" height="30" as="geometry" />
        </mxCell>
        <mxCell id="8aW-hddMtNVGwqMHstpQ-23" style="shape=tableRow;horizontal=0;startSize=0;swimlaneHead=0;swimlaneBody=0;top=0;left=0;bottom=0;right=0;collapsible=0;dropTarget=0;fillColor=none;points=[[0,0.5],[1,0.5]];portConstraint=eastwest;" parent="8aW-hddMtNVGwqMHstpQ-5" vertex="1">
          <mxGeometry y="150" width="630" height="50" as="geometry" />
        </mxCell>
        <mxCell id="8aW-hddMtNVGwqMHstpQ-24" style="shape=partialRectangle;html=1;whiteSpace=wrap;connectable=0;fillColor=none;top=0;left=0;bottom=0;right=0;overflow=hidden;" parent="8aW-hddMtNVGwqMHstpQ-23" vertex="1">
          <mxGeometry width="254" height="50" as="geometry">
            <mxRectangle width="254" height="50" as="alternateBounds" />
          </mxGeometry>
        </mxCell>
        <mxCell id="8aW-hddMtNVGwqMHstpQ-25" style="shape=partialRectangle;html=1;whiteSpace=wrap;connectable=0;fillColor=none;top=0;left=0;bottom=0;right=0;overflow=hidden;" parent="8aW-hddMtNVGwqMHstpQ-23" vertex="1">
          <mxGeometry x="254" width="70" height="50" as="geometry">
            <mxRectangle width="70" height="50" as="alternateBounds" />
          </mxGeometry>
        </mxCell>
        <mxCell id="8aW-hddMtNVGwqMHstpQ-26" style="shape=partialRectangle;html=1;whiteSpace=wrap;connectable=0;fillColor=none;top=0;left=0;bottom=0;right=0;overflow=hidden;pointerEvents=1;" parent="8aW-hddMtNVGwqMHstpQ-23" vertex="1">
          <mxGeometry x="324" width="105" height="50" as="geometry">
            <mxRectangle width="105" height="50" as="alternateBounds" />
          </mxGeometry>
        </mxCell>
        <mxCell id="8aW-hddMtNVGwqMHstpQ-31" style="shape=partialRectangle;html=1;whiteSpace=wrap;connectable=0;fillColor=none;top=0;left=0;bottom=0;right=0;overflow=hidden;pointerEvents=1;" parent="8aW-hddMtNVGwqMHstpQ-23" vertex="1">
          <mxGeometry x="429" width="151" height="50" as="geometry">
            <mxRectangle width="151" height="50" as="alternateBounds" />
          </mxGeometry>
        </mxCell>
        <mxCell id="8aW-hddMtNVGwqMHstpQ-343" style="shape=partialRectangle;html=1;whiteSpace=wrap;connectable=0;fillColor=none;top=0;left=0;bottom=0;right=0;overflow=hidden;pointerEvents=1;" parent="8aW-hddMtNVGwqMHstpQ-23" vertex="1">
          <mxGeometry x="580" width="50" height="50" as="geometry">
            <mxRectangle width="50" height="50" as="alternateBounds" />
          </mxGeometry>
        </mxCell>
        <mxCell id="8aW-hddMtNVGwqMHstpQ-27" style="swimlane;fontStyle=0;childLayout=stackLayout;horizontal=1;startSize=30;horizontalStack=0;resizeParent=1;resizeParentMax=0;resizeLast=0;collapsible=1;marginBottom=0;" parent="8aW-hddMtNVGwqMHstpQ-23" vertex="1">
          <mxGeometry x="630" width="NaN" height="50" as="geometry">
            <mxRectangle width="NaN" height="50" as="alternateBounds" />
          </mxGeometry>
        </mxCell>
        <mxCell id="8aW-hddMtNVGwqMHstpQ-22" value="" style="edgeStyle=orthogonalEdgeStyle;rounded=0;orthogonalLoop=1;jettySize=auto;html=1;" parent="7026571954dc6520-1" target="8aW-hddMtNVGwqMHstpQ-18" edge="1">
          <mxGeometry relative="1" as="geometry">
            <mxPoint x="480" y="340" as="sourcePoint" />
          </mxGeometry>
        </mxCell>
        <mxCell id="8aW-hddMtNVGwqMHstpQ-32" value="" style="rounded=1;align=left;fillColor=#F1F2F4;strokeColor=none;html=1;fontColor=#596780;fontSize=12;spacingLeft=26;" parent="7026571954dc6520-1" vertex="1">
          <mxGeometry x="930" y="290" width="32" height="33" as="geometry" />
        </mxCell>
        <mxCell id="8aW-hddMtNVGwqMHstpQ-33" value="" style="shape=mxgraph.mscae.intune.subscription_portal;fillColor=#596780;strokeColor=none;fontColor=#ffffff;labelPosition=right;verticalLabelPosition=middle;align=left;verticalAlign=middle;html=1;spacingLeft=5" parent="8aW-hddMtNVGwqMHstpQ-32" vertex="1">
          <mxGeometry y="0.5" width="12" height="12" relative="1" as="geometry">
            <mxPoint x="10" y="-6" as="offset" />
          </mxGeometry>
        </mxCell>
        <mxCell id="8aW-hddMtNVGwqMHstpQ-334" value="" style="line;strokeWidth=2;html=1;" parent="7026571954dc6520-1" vertex="1">
          <mxGeometry x="350" y="270" width="630" height="10" as="geometry" />
        </mxCell>
        <mxCell id="8aW-hddMtNVGwqMHstpQ-346" value="Create" style="rounded=1;align=center;fillColor=#F1F2F4;strokeColor=none;html=1;fontColor=#596780;fontSize=12;sketch=0;" parent="7026571954dc6520-1" vertex="1">
          <mxGeometry x="905" y="238" width="75" height="30" as="geometry" />
        </mxCell>
        <mxCell id="SZr3nd6nF8tyNM994ILB-3" value="" style="perimeter=none;dashed=0;shape=rect;fillColor=#ffffff;strokeColor=#eeeeee;shadow=0;labelBackgroundColor=#E6E6E6;" parent="1" vertex="1">
          <mxGeometry x="26" y="287" width="289" height="540" as="geometry" />
        </mxCell>
        <mxCell id="SZr3nd6nF8tyNM994ILB-4" value="manage staff" style="text;verticalAlign=middle;fontSize=15;spacing=16;resizeWidth=1;labelBackgroundColor=none;labelBorderColor=none;fillColor=none;" parent="SZr3nd6nF8tyNM994ILB-3" vertex="1">
          <mxGeometry width="288.99999999999994" height="42" relative="1" as="geometry">
            <mxPoint as="offset" />
          </mxGeometry>
        </mxCell>
        <mxCell id="SZr3nd6nF8tyNM994ILB-5" value="manage review form" style="text;verticalAlign=middle;fontSize=15;spacing=16;resizeWidth=1;" parent="SZr3nd6nF8tyNM994ILB-3" vertex="1">
          <mxGeometry width="288.99999999999994" height="42" relative="1" as="geometry">
            <mxPoint y="42" as="offset" />
          </mxGeometry>
        </mxCell>
        <mxCell id="SZr3nd6nF8tyNM994ILB-6" value="performance review" style="text;verticalAlign=middle;fontSize=15;spacing=16;resizeWidth=1;" parent="SZr3nd6nF8tyNM994ILB-3" vertex="1">
          <mxGeometry width="288.99999999999994" height="42" relative="1" as="geometry">
            <mxPoint y="84" as="offset" />
          </mxGeometry>
        </mxCell>
        <mxCell id="SZr3nd6nF8tyNM994ILB-7" value="dashboard" style="text;verticalAlign=middle;fontSize=15;spacing=16;resizeWidth=1;" parent="SZr3nd6nF8tyNM994ILB-3" vertex="1">
          <mxGeometry width="288.99999999999994" height="42" relative="1" as="geometry">
            <mxPoint y="126" as="offset" />
          </mxGeometry>
        </mxCell>
        <mxCell id="SZr3nd6nF8tyNM994ILB-10" value="report" style="text;verticalAlign=middle;fontSize=15;spacing=16;resizeWidth=1;" parent="SZr3nd6nF8tyNM994ILB-3" vertex="1">
          <mxGeometry y="170" width="288.99999999999994" height="40" as="geometry" />
        </mxCell>
        <mxCell id="SZr3nd6nF8tyNM994ILB-11" value="Log Out" style="text;verticalAlign=middle;fontSize=15;spacing=16;resizeWidth=1;" parent="SZr3nd6nF8tyNM994ILB-3" vertex="1">
          <mxGeometry y="210" width="288.99999999999994" height="40" as="geometry" />
        </mxCell>
      </root>
    </mxGraphModel>
  </diagram>
</mxfile>
